<svg xmlns="http://www.w3.org/2000/svg" id="booked_rides" width="32.898" height="21.884" viewBox="0 0 32.898 21.884">
    <defs>
        <style>
            .cls-1{fill:#e6e5ea}.cls-3{fill:#ec7}.cls-4{fill:#040507}
        </style>
    </defs>
    <path id="Path_9724" d="M129.072 149.772a4.491 4.491 0 0 1 4.381-3.506h9.21a4.491 4.491 0 0 1 3.921 2.3l2.516 4.505h-20.77z" class="cls-1" data-name="Path 9724" transform="translate(-124.448 -142.375)"/>
    <path id="Path_9725" fill="#7cc1ee" d="M32.459 252.2h24.153v1.412a1.644 1.644 0 0 0 1.644 1.644h2.3v-.838a2.22 2.22 0 0 0-1.664-2.149 2.22 2.22 0 0 1 1.664 2.149v3.554c-.039 0-.078-.005-.118-.005h-1.521a.335.335 0 0 0-.335.335v1.778H55.69a3.3 3.3 0 1 0-6.479 0h-9.865a3.3 3.3 0 1 0-6.479 0H30.24v-5.662a2.219 2.219 0 0 1 2.219-2.218z" data-name="Path 9725" transform="translate(-29.597 -241.499)"/>
    <g id="Group_3927" data-name="Group 3927" transform="translate(3.207 14.638)">
        <path id="Path_9726" d="M108.247 313.522a3.3 3.3 0 1 1-3.3 3.3 3.3 3.3 0 0 1 3.3-3.3z" class="cls-1" data-name="Path 9726" transform="translate(-88.601 -313.522)"/>
        <path id="Path_9727" d="M362.61 313.522a3.3 3.3 0 1 1-3.3 3.3 3.3 3.3 0 0 1 3.3-3.3z" class="cls-1" data-name="Path 9727" transform="translate(-359.308 -313.522)"/>
    </g>
    <g id="Group_3928" data-name="Group 3928" transform="translate(9.811 .643)">
        <path id="Path_9728" d="M261.179 97.119a1.414 1.414 0 0 1 1.414-1.414h3.476a1.414 1.414 0 0 1 1.414 1.414v1.7h-6.305v-1.7z" class="cls-3" data-name="Path 9728" transform="translate(-261.179 -95.705)"/>
        <path id="Path_9729" d="M34.181 254.417v.838h-2.3a1.644 1.644 0 0 1-1.644-1.644V252.2h1.722a2.254 2.254 0 0 1 .227.011 2.216 2.216 0 0 1 1.992 2.207z" class="cls-3" data-name="Path 9729" transform="translate(-13.038 -242.143)"/>
    </g>
    <path id="Path_9730" d="M10.335 341.957h1.518c.04 0 .079 0 .118.005a1.418 1.418 0 0 1 1.3 1.413v.435a1.418 1.418 0 0 1-1.418 1.418h-1.518a.335.335 0 0 1-.335-.335v-2.6a.335.335 0 0 1 .335-.336z" class="cls-1" data-name="Path 9730" transform="translate(18.984 -325.492)"/>
    <g id="Group_3929" data-name="Group 3929">
        <path id="Path_9731" d="M2.861 95.758h.507L4 92.959a5.133 5.133 0 0 1 5.008-4.008h.163V87.76a2.059 2.059 0 0 1 2.054-2.06H14.7a2.059 2.059 0 0 1 2.057 2.057v1.192h1.457a5.138 5.138 0 0 1 4.482 2.63l2.332 4.176h3.707a2.877 2.877 0 0 1 .435.033 2.846 2.846 0 0 1 .279.057q.069.018.136.039a2.866 2.866 0 0 1 2.015 2.735v3.052a2.064 2.064 0 0 1 1.3 1.915v.435a2.063 2.063 0 0 1-2.061 2.061h-1.52a.979.979 0 0 1-.977-.977v-.18h-1.759a3.947 3.947 0 0 1-.819 1.378h1.749a.643.643 0 1 1 0 1.285h-9.1a.643.643 0 1 1 0-1.285h1.532a3.948 3.948 0 0 1-.819-1.378h-8.887a3.947 3.947 0 0 1-.819 1.378h1.48a.643.643 0 1 1 0 1.285H2.5a.643.643 0 1 1 0-1.285h1.1a3.949 3.949 0 0 1-.819-1.378H.643a.643.643 0 0 1-.643-.644v-5.662a2.864 2.864 0 0 1 2.861-2.861zm6.144-5.521a3.827 3.827 0 0 0-3.755 3l-.566 2.517h8.138v-5.517zm6.468-2.477a.773.773 0 0 0-.772-.772h-3.476a.773.773 0 0 0-.772.772v1.053h5.02V87.76zm6.1 4.449a3.851 3.851 0 0 0-3.36-1.972h-4.105v5.521h9.449zm7.161 4.834h-1.077v.77a1 1 0 0 0 1 1h1.653v-.2a1.578 1.578 0 0 0-1.574-1.57zm.891 6.6v1.157h1.21a.775.775 0 0 0 .776-.776v-.435a.776.776 0 0 0-.776-.776h-1.21v.828zm-4.445 1.285a2.643 2.643 0 0 0 .33-1.281 2.659 2.659 0 0 0-5.318 0 2.659 2.659 0 0 0 4.989 1.281zm-16.344 0a2.643 2.643 0 0 0 .33-1.281 2.659 2.659 0 0 0-5.318 0 2.659 2.659 0 0 0 4.989 1.281zm-7.554-1.285h1.28a3.944 3.944 0 0 1 7.889 0h8.455a3.944 3.944 0 0 1 7.889 0h1.545V102.5a.979.979 0 0 1 .977-.977h.993V100.1h-1.651a2.289 2.289 0 0 1-2.287-2.287v-.77H2.861a1.578 1.578 0 0 0-1.576 1.576v5.02z" class="cls-4" data-name="Path 9731" transform="translate(0 -85.703)"/>
        <path id="Path_9732" d="M228.872 324.84h3.115a.643.643 0 0 1 0 1.285h-3.115a.643.643 0 0 1 0-1.285z" class="cls-4" data-name="Path 9732" transform="translate(-214.396 -309.475)"/>
        <path id="Path_9733" d="M316.76 325.238a.65.65 0 0 1 .059-.111.613.613 0 0 1 .08-.1.649.649 0 0 1 .58-.176.691.691 0 0 1 .12.037.627.627 0 0 1 .208.139.642.642 0 0 1 .139.208.686.686 0 0 1 .037.12.655.655 0 0 1 0 .251.654.654 0 0 1-.037.12.641.641 0 0 1-.059.111.659.659 0 0 1-.08.1.609.609 0 0 1-.1.08.648.648 0 0 1-.111.059.633.633 0 0 1-.12.037.646.646 0 0 1-.126.013.636.636 0 0 1-.125-.013.607.607 0 0 1-.12-.037.635.635 0 0 1-.111-.059.62.62 0 0 1-.177-.177.634.634 0 0 1-.059-.111.644.644 0 0 1-.037-.12.63.63 0 0 1-.013-.125.64.64 0 0 1 .013-.126.669.669 0 0 1 .039-.12z" class="cls-4" data-name="Path 9733" transform="translate(-305.447 -309.476)"/>
    </g>
</svg>
