<svg xmlns="http://www.w3.org/2000/svg" width="12.355" height="10.237" viewBox="0 0 12.355 10.237">
    <g id="car-compact" transform="translate(0 -38.37)">
        <path id="Path_411" fill="#fff" d="M12.355 44.056a1.619 1.619 0 0 0-.154-.687c-.01-.054-.022-.108-.036-.163l-1.073-2.66-.007-.024c-.375-1.118-.91-2.153-2.265-2.153H3.64c-1.388 0-1.879 1.06-2.262 2.147L.255 43.183a1.641 1.641 0 0 0-.255.873v.828a1.609 1.609 0 0 0 .044.374.65.65 0 0 0-.044.234v2.461a.654.654 0 0 0 .654.654H2.01a.654.654 0 0 0 .653-.654v-1.231h7.106v1.231a.654.654 0 0 0 .654.654H11.7a.654.654 0 0 0 .654-.654v-2.461a.654.654 0 0 0-.044-.234 1.617 1.617 0 0 0 .044-.374v-.827zM2.174 40.784c.427-1.206.771-1.574 1.466-1.574h5.18c.69 0 1.074.41 1.464 1.569l.783 1.587a2.4 2.4 0 0 0-.833-.147H2.121a2.408 2.408 0 0 0-.755.12zm.672 4.416H1.415a.467.467 0 0 1 0-.933h1.431a.467.467 0 0 1 0 .933zm5.054-.1H4.573a.3.3 0 0 1 0-.591H7.9a.3.3 0 1 1 0 .591zm3 .093H9.472a.467.467 0 0 1 0-.933H10.9a.467.467 0 1 1 0 .933z" data-name="Path 411"/>
    </g>
</svg>
