<svg xmlns="http://www.w3.org/2000/svg" width="13.514" height="12.616" viewBox="0 0 13.514 12.616">
    <defs>
        <style>
            .cls-1{fill:#fff}
        </style>
    </defs>
    <g id="discount" transform="translate(0 -17.01)">
        <path id="Path_9741" d="M107.589 222.991a.615.615 0 1 0 .456.594.546.546 0 0 0-.456-.594z" class="cls-1" data-name="Path 9741" transform="translate(-104.305 -200.545)"/>
        <path id="Path_9742" d="M258.953 341.981a.615.615 0 1 0 .456.594.546.546 0 0 0-.456-.594z" class="cls-1" data-name="Path 9742" transform="translate(-251.674 -316.394)"/>
        <path id="Path_9743" d="M9.867 20.776C5.853 17.082 6.059 17.223 5.74 17.1a1.317 1.317 0 0 0-1.366.257L.658 20.776a2.044 2.044 0 0 0-.658 1.5v6.055a1.292 1.292 0 0 0 1.287 1.294h7.95a1.292 1.292 0 0 0 1.287-1.294v-6.055a2.044 2.044 0 0 0-.657-1.5zm-4.988-1.3a.4.4 0 1 1 .321.424.4.4 0 0 1-.321-.422zM2.036 23.04a1.323 1.323 0 0 1 1.247-1.386 1.393 1.393 0 0 1 0 2.772 1.324 1.324 0 0 1-1.247-1.386zm2.27 4.214a.4.4 0 0 1-.365-.549l1.927-4.594a.4.4 0 0 1 .73.306l-1.927 4.595a.4.4 0 0 1-.365.243zm2.973.313a1.393 1.393 0 0 1 0-2.772 1.393 1.393 0 0 1 0 2.772z" class="cls-1" data-name="Path 9743"/>
        <path id="Path_9744" d="M289.47 43.448c-1.289-3.753-2.005-5.839-2.015-5.863a2.022 2.022 0 0 0-1.194-1.107c-.031-.01.15.034-2.721-.648l2.92 2.686a2.837 2.837 0 0 1 .913 2.084v5.131l1.424-.61a1.286 1.286 0 0 0 .673-1.673z" class="cls-1" data-name="Path 9744" transform="translate(-276.055 -18.324)"/>
    </g>
</svg>
