<svg xmlns="http://www.w3.org/2000/svg" width="13" height="9.903" viewBox="0 0 13 9.903">
    <defs>
        <style>
            .cls-1{fill:#fff}
        </style>
    </defs>
    <g id="email" transform="translate(0 -61)">
        <g id="Group_2" data-name="Group 2" transform="translate(.653 61)">
            <g id="Group_1" data-name="Group 1">
                <path id="Path_352" d="M36.926 61H26.211a1.129 1.129 0 0 0-.49.115l5.822 5.822 1.3-1.254 4.568-4.567a1.129 1.129 0 0 0-.485-.116z" class="cls-1" data-name="Path 352" transform="translate(-25.721 -61)"/>
            </g>
        </g>
        <g id="Group_4" data-name="Group 4" transform="translate(8.588 61.653)">
            <g id="Group_3" data-name="Group 3">
                <path id="Path_353" d="M342.511 86.728l-4.3 4.3 4.3 4.3a1.129 1.129 0 0 0 .115-.49v-7.621a1.129 1.129 0 0 0-.115-.489z" class="cls-1" data-name="Path 353" transform="translate(-338.213 -86.728)"/>
            </g>
        </g>
        <g id="Group_6" data-name="Group 6" transform="translate(0 61.653)">
            <g id="Group_5" data-name="Group 5">
                <path id="Path_354" d="M.115 86.721a1.129 1.129 0 0 0-.115.49v7.617a1.13 1.13 0 0 0 .114.489l4.3-4.3z" class="cls-1" data-name="Path 354" transform="translate(0 -86.721)"/>
            </g>
        </g>
        <g id="Group_8" data-name="Group 8" transform="translate(.653 66.49)">
            <g id="Group_7" data-name="Group 7">
                <path id="Path_355" d="M33.11 277.211l-1.305 1.254a.381.381 0 0 1-.539 0l-1.254-1.254-4.3 4.3a1.129 1.129 0 0 0 .49.115h10.717a1.129 1.129 0 0 0 .49-.114z" class="cls-1" data-name="Path 355" transform="translate(-25.714 -277.211)"/>
            </g>
        </g>
    </g>
</svg>
