<svg xmlns="http://www.w3.org/2000/svg" id="pdf" width="37.083" height="41.913" viewBox="0 0 37.083 41.913">
    <defs>
        <style>
            .cls-2{fill:#e3e0e4}.cls-3{fill:#dc4955}
        </style>
    </defs>
    <g id="Group_3840" data-name="Group 3840" transform="translate(.614 .614)">
        <path id="Path_9631" fill="#f9f8f9" d="M90.994 44.552a3.636 3.636 0 0 1-3.64 3.633H62.33a3.636 3.636 0 0 1-3.64-3.633V11.133A3.636 3.636 0 0 1 62.33 7.5h15.578a2.733 2.733 0 0 1 1.932.8L90.2 18.657a2.721 2.721 0 0 1 .8 1.924z" data-name="Path 9631" transform="translate(-56.914 -7.5)"/>
        <path id="Path_9632" d="M64.785 48.185H62.33a3.637 3.637 0 0 1-3.64-3.633V11.133A3.637 3.637 0 0 1 62.33 7.5h2.456a3.637 3.637 0 0 0-3.64 3.633v33.419a3.637 3.637 0 0 0 3.639 3.633z" class="cls-2" data-name="Path 9632" transform="translate(-56.914 -7.5)"/>
        <path id="Path_9633" d="M291.7 20.581v1.329h-9.493a4.923 4.923 0 0 1-4.917-4.917V7.5h1.324a2.734 2.734 0 0 1 1.932.8L290.9 18.657a2.722 2.722 0 0 1 .8 1.924z" class="cls-2" data-name="Path 9633" transform="translate(-257.62 -7.5)"/>
        <path id="Path_9634" d="M319 22.219h-9.248a2.461 2.461 0 0 1-2.461-2.462V10.51a2.705 2.705 0 0 1 .8.553l10.355 10.357a2.7 2.7 0 0 1 .554.799z" class="cls-3" data-name="Path 9634" transform="translate(-285.164 -10.264)"/>
        <path id="Path_9635" d="M69.581 231H40.274A3.274 3.274 0 0 1 37 227.726v-11.952a3.274 3.274 0 0 1 3.274-3.274h29.307a3.274 3.274 0 0 1 3.274 3.274v11.952A3.274 3.274 0 0 1 69.581 231z" class="cls-3" data-name="Path 9635" transform="translate(-37 -195.719)"/>
        <path id="Path_9636" fill="#c42430" d="M42.321 231h-2.047A3.275 3.275 0 0 1 37 227.726v-11.952a3.275 3.275 0 0 1 3.274-3.274h2.047a3.275 3.275 0 0 0-3.274 3.274v11.952A3.275 3.275 0 0 0 42.321 231z" data-name="Path 9636" transform="translate(-37 -195.719)"/>
    </g>
    <g id="Group_3841" data-name="Group 3841">
        <path id="Path_9637" d="M64.807 17.408V13.7a3.314 3.314 0 0 0-.977-2.358L53.474.98A3.324 3.324 0 0 0 51.108 0H35.529a4.255 4.255 0 0 0-4.254 4.247v7.389a.614.614 0 1 0 1.228 0V4.247a3.026 3.026 0 0 1 3.026-3.019h15.579a2.105 2.105 0 0 1 .519.065v5.48a.614.614 0 0 0 1.228 0V2.1l9.857 9.858H54.7a1.849 1.849 0 0 1-1.847-1.847v-.473a.614.614 0 0 0-1.228 0v.469a3.078 3.078 0 0 0 3.075 3.076h8.816a2.117 2.117 0 0 1 .063.513v3.189a3.879 3.879 0 0 0-.885-.1H60.5a.614.614 0 0 0 0 1.228h2.193a2.663 2.663 0 0 1 2.66 2.66v11.949a2.663 2.663 0 0 1-2.66 2.66H47.585a.614.614 0 1 0 0 1.228h15.11a3.879 3.879 0 0 0 .885-.1v1.259a3.026 3.026 0 0 1-3.026 3.019H35.529a3.026 3.026 0 0 1-3.029-3.022v-1.259a3.879 3.879 0 0 0 .885.1h11.334a.614.614 0 0 0 0-1.228H33.388a2.663 2.663 0 0 1-2.66-2.66V20.67a2.663 2.663 0 0 1 2.66-2.66h24.249a.614.614 0 0 0 0-1.228H33.388a3.879 3.879 0 0 0-.885.1V14.5a.614.614 0 1 0-1.228 0v2.908A3.887 3.887 0 0 0 29.5 20.67v11.952a3.888 3.888 0 0 0 1.776 3.262v1.783a4.255 4.255 0 0 0 4.254 4.247h25.024a4.255 4.255 0 0 0 4.254-4.247v-1.784a3.888 3.888 0 0 0 1.776-3.262V20.67a3.887 3.887 0 0 0-1.776-3.262z" data-name="Path 9637" transform="translate(-29.5)"/>
        <path id="Path_9638" d="M335.208 262.649a.614.614 0 1 0 0-1.228h-3.754a.614.614 0 0 0-.614.614v9.265a.614.614 0 0 0 1.228 0v-4.105h2.842a.614.614 0 0 0 0-1.228h-2.842v-3.316z" data-name="Path 9638" transform="translate(-306.172 -240.021)"/>
        <path id="Path_9639" d="M219.829 272.21a.675.675 0 0 0 .635.761c.077 0 1.9-.007 2.63-.02a3.917 3.917 0 0 0 3.091-1.573 5.845 5.845 0 0 0 1.094-3.549c0-3.076-1.716-5.142-4.271-5.142h-2.565a.618.618 0 0 0-.614.623zm3.179-8.295c2.244 0 3.043 2.022 3.043 3.914 0 2.262-1.225 3.863-2.979 3.894-.457.008-1.381.014-2 .017 0-1.013-.01-3.01-.01-3.921 0-.762 0-2.855-.005-3.9h1.95z" data-name="Path 9639" transform="translate(-204.247 -241.184)"/>
        <path id="Path_9640" d="M120.91 261a.618.618 0 0 0-.614.614v9.331a.614.614 0 1 0 1.228 0v-3.443c.608 0 1.529-.008 1.984-.008a3.248 3.248 0 1 0 0-6.495h-2.6zm4.669 3.247a2.073 2.073 0 0 1-2.071 2.019c-.453 0-1.36 0-1.97.008 0-.625-.008-1.566-.008-2.027v-2.019h1.982a2.073 2.073 0 0 1 2.067 2.022z" data-name="Path 9640" transform="translate(-112.863 -239.637)"/>
    </g>
</svg>
