<svg xmlns="http://www.w3.org/2000/svg" width="63.736" height="85.889" viewBox="0 0 63.736 85.889">
    <g id="logo_icon" transform="translate(-634.028 -351.757)">
        <g id="Group_3817" data-name="Group 3817" transform="translate(634.028 351.757)">
            <g id="Group_3814" data-name="Group 3814" transform="translate(0 30.609)">
                <path id="Path_2453" fill="#0071bc" d="M755.342 491.391h-6.659l-25.354-43.747-25.086 43.747h-6.637l31.7-55.281z" data-name="Path 2453" transform="translate(-691.606 -436.11)"/>
            </g>
            <g id="Group_3816" data-name="Group 3816" transform="translate(3.431)">
                <g id="Group_3815" data-name="Group 3815">
                    <path id="Path_2454" fill="#164173" d="M729.34 351.757a28.279 28.279 0 0 0-24.883 41.716l7.242 13.1 3.349-5.844-5.536-10.012a22.517 22.517 0 1 1 39.663-.013l-5.5 9.942 3.369 5.809 7.184-12.991a28.282 28.282 0 0 0-24.89-41.7zm0 74.813l-7.41-13.4-3.349 5.843 9.212 16.662a1.766 1.766 0 0 0 3.092 0l9.3-16.815-3.367-5.809z" data-name="Path 2454" transform="translate(-701.061 -351.757)"/>
                </g>
            </g>
        </g>
    </g>
</svg>
