<svg xmlns="http://www.w3.org/2000/svg" id="pdf" width="20.831" height="23.544" viewBox="0 0 20.831 23.544">
    <defs>
        <style>
            .cls-2{fill:#e3e0e4}.cls-3{fill:#dc4955}
        </style>
    </defs>
    <g id="Group_3840" data-name="Group 3840" transform="translate(.345 .345)">
        <path id="Path_9631" fill="#f9f8f9" d="M76.837 28.314a2.043 2.043 0 0 1-2.045 2.041H60.735a2.043 2.043 0 0 1-2.045-2.041V9.541A2.043 2.043 0 0 1 60.735 7.5h8.751a1.535 1.535 0 0 1 1.086.449l5.817 5.818a1.529 1.529 0 0 1 .448 1.081z" data-name="Path 9631" transform="translate(-57.693 -7.5)"/>
        <path id="Path_9632" d="M62.114 30.354h-1.38a2.043 2.043 0 0 1-2.044-2.041V9.541A2.043 2.043 0 0 1 60.734 7.5h1.38a2.043 2.043 0 0 0-2.044 2.041v18.773a2.043 2.043 0 0 0 2.044 2.04z" class="cls-2" data-name="Path 9632" transform="translate(-57.693 -7.5)"/>
        <path id="Path_9633" d="M285.384 14.848v.752h-5.332a2.765 2.765 0 0 1-2.762-2.762V7.5h.744a1.536 1.536 0 0 1 1.085.449l5.818 5.818a1.529 1.529 0 0 1 .447 1.081z" class="cls-2" data-name="Path 9633" transform="translate(-266.24 -7.5)"/>
        <path id="Path_9634" d="M313.867 17.087h-5.195a1.383 1.383 0 0 1-1.382-1.387v-5.19a1.519 1.519 0 0 1 .449.311l5.818 5.818a1.519 1.519 0 0 1 .31.448z" class="cls-3" data-name="Path 9634" transform="translate(-294.861 -10.372)"/>
        <path id="Path_9635" d="M55.3 222.893H38.839a1.839 1.839 0 0 1-1.839-1.84v-6.714a1.839 1.839 0 0 1 1.839-1.839H55.3a1.839 1.839 0 0 1 1.839 1.839v6.714a1.839 1.839 0 0 1-1.839 1.84z" class="cls-3" data-name="Path 9635" transform="translate(-37 -203.073)"/>
        <path id="Path_9636" fill="#c42430" d="M39.989 222.893h-1.15a1.839 1.839 0 0 1-1.839-1.84v-6.714a1.839 1.839 0 0 1 1.839-1.839h1.15a1.839 1.839 0 0 0-1.839 1.839v6.714a1.839 1.839 0 0 0 1.839 1.84z" data-name="Path 9636" transform="translate(-37 -203.073)"/>
    </g>
    <g id="Group_3841" data-name="Group 3841">
        <path id="Path_9637" d="M49.334 9.779V7.693a1.862 1.862 0 0 0-.549-1.325L42.968.55a1.867 1.867 0 0 0-1.33-.55h-8.751A2.39 2.39 0 0 0 30.5 2.385v4.151a.345.345 0 0 0 .69 0V2.385a1.7 1.7 0 0 1 1.7-1.7h8.751a1.183 1.183 0 0 1 .291.037V3.8a.345.345 0 1 0 .69 0V1.178l5.537 5.538h-4.5a1.039 1.039 0 0 1-1.037-1.038v-.264a.345.345 0 0 0-.69 0v.264a1.729 1.729 0 0 0 1.727 1.727h4.952a1.189 1.189 0 0 1 .035.288v1.792a2.179 2.179 0 0 0-.5-.058h-1.231a.345.345 0 1 0 0 .69h1.232a1.5 1.5 0 0 1 1.495 1.495v6.714a1.5 1.5 0 0 1-1.495 1.495h-8.488a.345.345 0 0 0 0 .69h8.488a2.179 2.179 0 0 0 .5-.058v.707a1.7 1.7 0 0 1-1.7 1.7h-14.06a1.7 1.7 0 0 1-1.7-1.7v-.707a2.179 2.179 0 0 0 .5.058h6.365a.345.345 0 0 0 0-.69h-6.368a1.5 1.5 0 0 1-1.495-1.495v-6.715a1.5 1.5 0 0 1 1.495-1.495h13.622a.345.345 0 0 0 0-.69H31.684a2.179 2.179 0 0 0-.5.058V8.145a.345.345 0 1 0-.69 0v1.634a2.184 2.184 0 0 0-1 1.832v6.714a2.184 2.184 0 0 0 1 1.832v1a2.39 2.39 0 0 0 2.39 2.385h14.06a2.39 2.39 0 0 0 2.39-2.385v-1a2.184 2.184 0 0 0 1-1.832v-6.714a2.184 2.184 0 0 0-1-1.832z" data-name="Path 9637" transform="translate(-29.5)"/>
        <path id="Path_9638" d="M333.294 262.111a.345.345 0 0 0 0-.69h-2.109a.345.345 0 0 0-.345.345v5.2a.345.345 0 1 0 .69 0v-2.306h1.6a.345.345 0 1 0 0-.69h-1.6v-1.863z" data-name="Path 9638" transform="translate(-316.983 -249.4)"/>
        <path id="Path_9639" d="M219.828 268.037a.379.379 0 0 0 .356.427c.043 0 1.069 0 1.477-.011a2.2 2.2 0 0 0 1.737-.884 3.283 3.283 0 0 0 .614-1.993c0-1.728-.964-2.888-2.4-2.888h-1.441a.347.347 0 0 0-.345.35zm1.786-4.659c1.26 0 1.709 1.136 1.709 2.2 0 1.271-.688 2.17-1.673 2.187-.257 0-.776.008-1.123.01 0-.569-.005-1.691-.005-2.2v-2.193h1.1z" data-name="Path 9639" transform="translate(-211.076 -250.608)"/>
        <path id="Path_9640" d="M120.641 261a.347.347 0 0 0-.345.345v5.242a.345.345 0 0 0 .69 0v-1.934h1.115a1.824 1.824 0 1 0 0-3.648h-1.46zm2.623 1.824a1.165 1.165 0 0 1-1.163 1.134h-1.107v-1.139-1.134h1.106a1.165 1.165 0 0 1 1.164 1.142z" data-name="Path 9640" transform="translate(-116.121 -249)"/>
    </g>
</svg>
