<svg xmlns="http://www.w3.org/2000/svg" width="160" height="141" viewBox="0 0 160 141">
    <defs>
        <style>
            .cls-2{fill:#333e4c}.cls-3{fill:#2d3845}
        </style>
    </defs>
    <g id="right_dots" data-name="right dots" transform="translate(-763 1045)" style="mix-blend-mode:screen;isolation:isolate">
        <circle id="Ellipse_7" cx="4" cy="4" r="4" class="cls-2" data-name="Ellipse 7" transform="translate(915 -912)"/>
        <circle id="Ellipse_10" cx="4" cy="4" r="4" class="cls-2" data-name="Ellipse 10" transform="translate(915 -931)"/>
        <circle id="Ellipse_12" cx="4" cy="4" r="4" class="cls-2" data-name="Ellipse 12" transform="translate(915 -950)"/>
        <circle id="Ellipse_14" cx="4" cy="4" r="4" class="cls-2" data-name="Ellipse 14" transform="translate(915 -969)"/>
        <circle id="Ellipse_16" cx="4" cy="4" r="4" class="cls-2" data-name="Ellipse 16" transform="translate(915 -988)"/>
        <circle id="Ellipse_18" cx="4" cy="4" r="4" class="cls-2" data-name="Ellipse 18" transform="translate(915 -1007)"/>
        <circle id="Ellipse_20" cx="4" cy="4" r="4" class="cls-2" data-name="Ellipse 20" transform="translate(915 -1026)"/>
        <circle id="Ellipse_22" cx="4" cy="4" r="4" class="cls-2" data-name="Ellipse 22" transform="translate(915 -1045)"/>
        <circle id="Ellipse_24" cx="4" cy="4" r="4" class="cls-2" data-name="Ellipse 24" transform="translate(877 -1045)"/>
        <circle id="Ellipse_30" cx="4" cy="4" r="4" class="cls-2" data-name="Ellipse 30" transform="translate(839 -1045)"/>
        <circle id="Ellipse_34" cx="4" cy="4" r="4" class="cls-2" data-name="Ellipse 34" transform="translate(801 -1045)"/>
        <circle id="Ellipse_38" cx="4" cy="4" r="4" class="cls-3" data-name="Ellipse 38" transform="translate(763 -1045)"/>
        <circle id="Ellipse_26" cx="4" cy="4" r="4" class="cls-2" data-name="Ellipse 26" transform="translate(877 -1026)"/>
        <circle id="Ellipse_28" cx="4" cy="4" r="4" class="cls-2" data-name="Ellipse 28" transform="translate(839 -1026)"/>
        <circle id="Ellipse_32" cx="4" cy="4" r="4" class="cls-2" data-name="Ellipse 32" transform="translate(801 -1026)"/>
        <circle id="Ellipse_36" cx="4" cy="4" r="4" class="cls-3" data-name="Ellipse 36" transform="translate(763 -1026)"/>
        <circle id="Ellipse_8" cx="4" cy="4" r="4" class="cls-2" data-name="Ellipse 8" transform="translate(896 -912)"/>
        <circle id="Ellipse_9" cx="4" cy="4" r="4" class="cls-2" data-name="Ellipse 9" transform="translate(896 -931)"/>
        <circle id="Ellipse_11" cx="4" cy="4" r="4" class="cls-2" data-name="Ellipse 11" transform="translate(896 -950)"/>
        <circle id="Ellipse_13" cx="4" cy="4" r="4" class="cls-2" data-name="Ellipse 13" transform="translate(896 -969)"/>
        <circle id="Ellipse_15" cx="4" cy="4" r="4" class="cls-2" data-name="Ellipse 15" transform="translate(896 -988)"/>
        <circle id="Ellipse_17" cx="4" cy="4" r="4" class="cls-2" data-name="Ellipse 17" transform="translate(896 -1007)"/>
        <circle id="Ellipse_19" cx="4" cy="4" r="4" class="cls-2" data-name="Ellipse 19" transform="translate(896 -1026)"/>
        <circle id="Ellipse_21" cx="4" cy="4" r="4" class="cls-2" data-name="Ellipse 21" transform="translate(896 -1045)"/>
        <circle id="Ellipse_23" cx="4" cy="4" r="4" class="cls-2" data-name="Ellipse 23" transform="translate(858 -1045)"/>
        <circle id="Ellipse_29" cx="4" cy="4" r="4" class="cls-2" data-name="Ellipse 29" transform="translate(820 -1045)"/>
        <circle id="Ellipse_33" cx="4" cy="4" r="4" class="cls-2" data-name="Ellipse 33" transform="translate(782 -1045)"/>
        <circle id="Ellipse_25" cx="4" cy="4" r="4" class="cls-2" data-name="Ellipse 25" transform="translate(858 -1026)"/>
        <circle id="Ellipse_27" cx="4" cy="4" r="4" class="cls-2" data-name="Ellipse 27" transform="translate(820 -1026)"/>
        <circle id="Ellipse_31" cx="4" cy="4" r="4" class="cls-2" data-name="Ellipse 31" transform="translate(782 -1026)"/>
    </g>
</svg>
