<svg xmlns="http://www.w3.org/2000/svg" width="24" height="24" viewBox="0 0 24 24">
    <g id="Route_" data-name="Route" transform="translate(-1166 -2367)">
        <circle id="Ellipse_526" cx="12" cy="12" r="12" fill="#33cc6b" data-name="Ellipse 526" transform="translate(1166 2367)"/>
        <path id="Exclusion_6" fill="#fff" d="M3.5 11.357a12.757 12.757 0 0 1-1.9-3.365A15.713 15.713 0 0 1 0 3.272 3.4 3.4 0 0 1 3.5 0 3.4 3.4 0 0 1 7 3.272a15.715 15.715 0 0 1-1.6 4.72 12.769 12.769 0 0 1-1.9 3.365zm0-9.394a1.359 1.359 0 0 0-1.4 1.309A1.358 1.358 0 0 0 3.5 4.58a1.358 1.358 0 0 0 1.4-1.308 1.358 1.358 0 0 0-1.4-1.309z" data-name="Exclusion 6" transform="translate(1175 2373)"/>
    </g>
</svg>
