<svg xmlns="http://www.w3.org/2000/svg" id="users" width="28.231" height="28.231" viewBox="0 0 28.231 28.231">
    <defs>
        <style>
            .cls-1{fill:#007aff}
        </style>
    </defs>
    <path id="Path_9686" d="M27.617 27H1.227V.614A.614.614 0 1 0 0 .614v27a.614.614 0 0 0 .614.614h27a.614.614 0 1 0 0-1.227z" class="cls-1" data-name="Path 9686"/>
    <path id="Path_9687" d="M72.41 23.542l-7.364-7.364a.614.614 0 0 0-.868.868l7.185 7.185v4.656a.614.614 0 0 0 .614.614h4.656L84 36.864h-5.887a.614.614 0 0 0 0 1.227h7.364a.616.616 0 0 0 .614-.614v-7.364a.614.614 0 1 0-1.227 0V36l-7.544-7.548a.612.612 0 0 0-.434-.18h-4.3v-4.3a.612.612 0 0 0-.176-.43z" class="cls-1" data-name="Path 9687" transform="rotate(-90 38.116 49.203)"/>
</svg>
