<svg xmlns="http://www.w3.org/2000/svg" id="drivers" width="33.556" height="26.674" viewBox="0 0 33.556 26.674">
    <defs>
        <style>
            .cls-1{fill:#0d83aa}
        </style>
    </defs>
    <g id="Group_3902" data-name="Group 3902">
        <g id="Group_3901" data-name="Group 3901">
            <path id="Path_9681" d="M211.7 123.882a1.311 1.311 0 0 0-1.665-.156c-1.961 1.337-11.8 8.059-12.856 9.116a3.932 3.932 0 0 0 5.561 5.561c1.057-1.057 7.779-10.895 9.116-12.856a1.311 1.311 0 0 0-.156-1.665zm-10.814 12.668a1.311 1.311 0 0 1-1.854-1.853c.411-.406 3.2-2.4 6.64-4.787-2.388 3.436-4.38 6.229-4.786 6.64z" class="cls-1" data-name="Path 9681" transform="translate(-183.181 -118.845)"/>
            <path id="Path_9682" d="M6.045 75.373l-1.618.789a14.09 14.09 0 0 1-.884-11.912l1.854.889a1.311 1.311 0 1 0 1.134-2.364L4.7 61.9a14.175 14.175 0 0 1 10.767-6.718v1.971a1.311 1.311 0 0 0 2.622 0V55.18a13.994 13.994 0 0 1 4.511 1.187 1.311 1.311 0 1 0 1.079-2.389A16.764 16.764 0 0 0 2.843 78.591a1.31 1.31 0 0 0 1.664.45l2.687-1.311a1.311 1.311 0 1 0-1.149-2.356z" class="cls-1" data-name="Path 9682" transform="translate(0 -52.499)"/>
            <path id="Path_9683" d="M396.512 192.266a1.311 1.311 0 1 0-2.389 1.079 14.111 14.111 0 0 1-.564 12.714l-1.689-.8a1.311 1.311 0 1 0-1.127 2.367l2.753 1.311a1.31 1.31 0 0 0 1.653-.455 16.738 16.738 0 0 0 1.364-16.21z" class="cls-1" data-name="Path 9683" transform="translate(-364.435 -182.384)"/>
        </g>
    </g>
</svg>
