<svg xmlns="http://www.w3.org/2000/svg" width="18.391" height="12.828" viewBox="0 0 18.391 12.828">
    <defs>
        <style>
            .cls-1{fill:#fff}
        </style>
    </defs>
    <g id="track" transform="translate(0 -77.442)">
        <g id="Group_10" data-name="Group 10" transform="translate(2.744 80.186)">
            <g id="Group_9" data-name="Group 9">
                <path id="Path_356" d="M76.733 153.822a.354.354 0 1 0 .354.354.354.354 0 0 0-.354-.354z" class="cls-1" data-name="Path 356" transform="translate(-76.379 -153.822)"/>
            </g>
        </g>
        <g id="Group_12" data-name="Group 12" transform="translate(0 77.442)">
            <g id="Group_11" data-name="Group 11">
                <path id="Path_357" d="M3.1 77.442a3.1 3.1 0 0 0-3.1 3.1 6.426 6.426 0 0 0 1.372 3.285 18.319 18.319 0 0 0 1.321 1.706.543.543 0 0 0 .81 0 18.3 18.3 0 0 0 1.321-1.706 6.426 6.426 0 0 0 1.372-3.285 3.1 3.1 0 0 0-3.096-3.1zm0 4.537a1.439 1.439 0 1 1 1.439-1.439A1.441 1.441 0 0 1 3.1 81.979z" class="cls-1" data-name="Path 357" transform="translate(0 -77.442)"/>
            </g>
        </g>
        <g id="Group_14" data-name="Group 14" transform="translate(4.768 84.626)">
            <g id="Group_13" data-name="Group 13">
                <path id="Path_358" d="M140.782 282h-1.351a1.738 1.738 0 0 1-1.736-1.736 2.825 2.825 0 0 0-2.822-2.822h-1.305c-.3.427-.591.8-.82 1.086h2.125a1.738 1.738 0 0 1 1.736 1.736 2.825 2.825 0 0 0 2.822 2.822h2.169c-.226-.286-.518-.662-.818-1.086z" class="cls-1" data-name="Path 358" transform="translate(-132.748 -277.439)"/>
            </g>
        </g>
        <g id="Group_16" data-name="Group 16" transform="translate(14.94 84.743)">
            <g id="Group_15" data-name="Group 15">
                <path id="Path_359" d="M416.287 280.71a.354.354 0 1 0 .354.354.354.354 0 0 0-.354-.354z" class="cls-1" data-name="Path 359" transform="translate(-415.933 -280.71)"/>
            </g>
        </g>
        <g id="Group_18" data-name="Group 18" transform="translate(12.197 82)">
            <g id="Group_17" data-name="Group 17">
                <path id="Path_360" d="M342.652 204.331a3.1 3.1 0 0 0-3.1 3.1 6.426 6.426 0 0 0 1.372 3.285 18.313 18.313 0 0 0 1.321 1.706.543.543 0 0 0 .81 0 18.3 18.3 0 0 0 1.321-1.706 6.425 6.425 0 0 0 1.371-3.285 3.1 3.1 0 0 0-3.095-3.1zm0 4.536a1.439 1.439 0 1 1 1.439-1.439 1.441 1.441 0 0 1-1.439 1.439z" class="cls-1" data-name="Path 360" transform="translate(-339.555 -204.331)"/>
            </g>
        </g>
    </g>
</svg>
